<svg width="51" height="48" viewBox="0 0 51 48" fill="none" xmlns="http://www.w3.org/2000/svg">
<path d="M50.865 28.753C50.5585 27.9056 49.7556 27.3153 48.7171 27.1736C48.2274 27.1068 47.6666 27.1353 47.0031 27.2602C45.8465 27.478 44.9884 27.5609 44.3622 27.5771C46.7259 23.9338 48.648 19.779 49.7545 15.868C51.5437 9.54425 50.5876 6.66335 49.4703 5.36017C46.5135 1.91115 42.1995 0.0581686 36.9948 0.00136764C34.2186 -0.0295657 31.7811 0.470865 30.5098 0.83064C29.3259 0.640082 28.0529 0.533594 26.7173 0.51387C24.2139 0.477439 22.0018 0.975606 20.1117 1.99953C19.065 1.67662 17.3858 1.22124 15.4463 0.930554C10.8847 0.246894 7.2084 0.779659 4.51933 2.51387C1.26307 4.61367 -0.246516 8.26186 0.0327094 13.3572C0.121259 14.975 1.11266 19.8971 2.67349 24.5652C3.57055 27.2483 4.52712 29.4764 5.51663 31.1882C6.91985 33.6156 8.42129 35.0451 10.1069 35.5583C11.0518 35.8458 12.7684 36.0469 14.5739 34.6744C14.8028 34.9273 15.108 35.1787 15.5133 35.4122C16.0278 35.7085 16.6571 35.9505 17.2854 36.094C19.5503 36.6109 21.6717 36.4816 23.4815 35.7572C23.4926 36.051 23.5013 36.3318 23.5086 36.5742C23.5206 36.9675 23.5324 37.353 23.5482 37.7135C23.6555 40.1518 23.8372 42.0475 24.3755 43.3739C24.4051 43.447 24.4448 43.5581 24.4869 43.6759C24.7554 44.4267 25.2046 45.6834 26.3471 46.6678C27.5305 47.6873 28.9617 48.0001 30.2725 48C30.9298 48 31.5571 47.9213 32.1072 47.8136C34.0684 47.4301 36.2956 46.8454 37.9067 44.7512C39.4299 42.7714 40.1704 39.7895 40.3044 35.0909C40.3218 34.9581 40.3378 34.8312 40.3533 34.7103C40.3637 34.6287 40.3743 34.5453 40.385 34.4621L40.744 34.4909L40.8364 34.4966C42.8338 34.5797 45.2761 34.193 46.7761 33.5569C47.9613 33.0548 51.7593 31.2244 50.865 28.753Z" fill="black"/>
<path d="M47.4498 29.2337C41.5108 30.3521 41.1025 28.5164 41.1025 28.5164C47.3731 20.0224 49.9944 9.24043 47.7323 6.60162C41.561 -0.596584 30.8781 2.8077 30.6999 2.89608L30.6425 2.90546C29.4691 2.68311 28.156 2.55064 26.6802 2.52865C23.9929 2.48845 21.9545 3.17179 20.4077 4.2426C20.4077 4.2426 1.35057 -2.92434 2.23689 13.2564C2.42545 16.6987 7.64148 39.3026 13.863 32.4751C16.1369 29.9786 18.334 27.8677 18.334 27.8677C19.4253 28.5295 20.7317 28.867 22.1012 28.7458L22.2076 28.6633C22.1746 28.9733 22.1897 29.2765 22.2502 29.6354C20.6475 31.2701 21.1185 31.5572 17.9145 32.1592C14.6725 32.7692 16.5771 33.8551 17.8205 34.1389C19.328 34.483 22.8155 34.9705 25.172 31.9591L25.078 32.3027C25.706 32.7618 26.147 35.2894 26.0731 37.5807C25.9992 39.872 25.9498 41.4451 26.4447 42.6738C26.9395 43.9025 27.4326 46.6671 31.6445 45.8432C35.1639 45.1547 36.9877 43.3705 37.2414 40.3943C37.4215 38.2784 37.8289 38.5912 37.8547 36.6995L38.1815 35.804C38.5583 32.9358 38.2413 32.0105 40.4096 32.4409L40.9365 32.4831C42.5324 32.5494 44.6211 32.2488 45.847 31.7287C48.4867 30.6103 50.0523 28.7431 47.4495 29.2337H47.4498Z" fill="#336791"/>
<path d="M21.5232 14.7958C20.9881 14.7278 20.5033 14.7907 20.2581 14.9602C20.1201 15.0555 20.0775 15.166 20.066 15.2421C20.0352 15.4436 20.1899 15.6662 20.2848 15.7811C20.5535 16.1063 20.9462 16.3299 21.3349 16.3791C21.3912 16.3862 21.4471 16.3897 21.5029 16.3897C22.151 16.3897 22.7402 15.929 22.7921 15.589C22.8571 15.1631 22.1799 14.8792 21.5232 14.7958Z" fill="white"/>
<path d="M39.253 14.8093C39.202 14.4755 38.5511 14.3803 37.9336 14.4587C37.3171 14.5371 36.7191 14.7912 36.769 15.1257C36.8092 15.3859 37.3236 15.8301 37.9328 15.83C37.9842 15.83 38.0361 15.8268 38.0884 15.8202C38.495 15.7687 38.7934 15.533 38.9351 15.3971C39.151 15.1902 39.2758 14.9593 39.253 14.8093Z" fill="white"/>
<path d="M49.426 29.1066C49.1996 28.4815 48.4708 28.2803 47.2598 28.5087C43.6642 29.1861 42.3766 28.7168 41.9536 28.4326C44.7485 24.5457 47.0476 19.8476 48.2879 15.4641C48.8755 13.3876 49.2001 11.4593 49.2265 9.88765C49.2558 8.16228 48.9341 6.89466 48.2702 6.12025C45.5937 2.99825 41.6658 1.32364 36.9109 1.27762C33.6422 1.2441 30.8804 2.00784 30.3449 2.22254C29.2174 1.96656 27.9882 1.80941 26.6502 1.78937C24.1962 1.75315 22.0751 2.28947 20.3189 3.3826C19.5561 3.12349 17.5846 2.50568 15.1738 2.15119C11.0056 1.53845 7.69351 2.00267 5.32983 3.53134C2.50948 5.35543 1.20745 8.61604 1.45975 13.2224C1.54464 14.7723 2.51184 19.5398 4.03843 24.1057C6.04779 30.115 8.23189 33.5171 10.5302 34.2168C10.7991 34.2987 11.1094 34.356 11.4513 34.356C12.2897 34.356 13.3175 34.011 14.3869 32.8374C16.1632 30.8865 17.8217 29.2518 18.433 28.6578C19.3365 29.1006 20.3288 29.3477 21.3441 29.3725C21.3458 29.3968 21.3485 29.421 21.3509 29.4452C21.1472 29.6657 20.9802 29.8589 20.8378 30.024C20.1345 30.839 19.9881 31.0087 17.724 31.4343C17.0801 31.5555 15.3694 31.8774 15.3445 32.9719C15.3173 34.1677 17.3663 34.67 17.5998 34.7232C18.4134 34.9092 19.1971 35.0009 19.9446 35.0009C21.7626 35.0008 23.3623 34.4554 24.6408 33.4001C24.6014 37.6634 24.7962 41.8644 25.3569 43.1444C25.816 44.1922 26.938 46.7531 30.482 46.7529C31.0018 46.7529 31.5743 46.6977 32.204 46.5745C35.9025 45.8505 37.5086 44.3583 38.13 41.0684C38.4624 39.3101 39.033 35.1114 39.3013 32.8593C39.8677 33.0205 40.5968 33.0943 41.385 33.0942C43.029 33.0942 44.9258 32.7754 46.1155 32.2713C47.4517 31.7048 49.8633 30.3144 49.426 29.1066ZM40.6182 13.8879C40.6059 14.5528 40.5057 15.1563 40.3994 15.7864C40.2851 16.4641 40.1668 17.1646 40.1371 18.0151C40.1077 18.8428 40.2209 19.7033 40.3305 20.5354C40.5517 22.2162 40.7788 23.9466 39.8998 25.6541C39.7632 25.4326 39.6313 25.1909 39.5104 24.9233C39.4012 24.6815 39.164 24.2932 38.8356 23.7557C37.5577 21.6637 34.5652 16.7646 36.0971 14.7654C36.5533 14.1702 37.7113 13.5586 40.6182 13.8879ZM37.0948 2.62403C41.355 2.70993 44.725 4.16488 47.1111 6.94823C48.9411 9.08317 46.926 18.7975 41.0922 27.1781C41.0346 27.1113 40.9759 27.0438 40.9153 26.9746C40.891 26.9469 40.8664 26.9188 40.8415 26.8903C42.3489 24.6175 42.0541 22.3689 41.7918 20.3751C41.684 19.557 41.5822 18.7842 41.6081 18.0584C41.6349 17.2888 41.7463 16.6291 41.854 15.991C41.9866 15.2046 42.1213 14.3911 42.0841 13.4319C42.1118 13.3314 42.1231 13.2125 42.1085 13.0714C42.0136 12.1516 40.8634 9.39918 38.5189 6.9076C37.2366 5.54502 35.3663 4.02002 32.8127 2.99146C33.9111 2.78365 35.4131 2.58986 37.0948 2.62403ZM13.2552 31.9784C12.0771 33.2715 11.2634 33.0237 10.9958 32.9424C9.25234 32.4114 7.22951 29.0477 5.44601 23.7135C3.90277 19.0979 3.00087 14.4567 2.92955 13.1553C2.70417 9.0393 3.7971 6.17069 6.17814 4.6292C10.0531 2.12058 16.4239 3.62209 18.9838 4.38367C18.947 4.41676 18.9087 4.4478 18.8722 4.48143C14.6716 8.35435 14.7712 14.9713 14.7815 15.3757C14.7811 15.5317 14.7954 15.7527 14.8151 16.0566C14.8874 17.1695 15.0219 19.2408 14.6626 21.5866C14.3286 23.7664 15.0646 25.8999 16.6816 27.4401C16.8491 27.5995 17.0238 27.7492 17.2043 27.8901C16.4845 28.5938 14.9202 30.1499 13.2552 31.9784ZM17.7442 26.5105C16.4409 25.2692 15.849 23.5424 16.1201 21.7726C16.4996 19.2946 16.3594 17.1365 16.2842 15.9771C16.2737 15.8149 16.2644 15.6727 16.2588 15.5605C16.8725 15.0639 19.7164 13.6727 21.7444 14.097C22.6701 14.2905 23.2338 14.8658 23.4683 15.8554C24.6818 20.9786 23.629 23.114 22.783 24.8299C22.6087 25.1834 22.444 25.5175 22.3032 25.8633L22.1942 26.1305C21.9182 26.8061 21.6614 27.4343 21.5023 28.0309C20.1169 28.027 18.769 27.4868 17.7442 26.5105ZM17.9569 33.4198C17.5524 33.3276 17.1885 33.1673 16.975 33.0344C17.1533 32.9578 17.4707 32.8537 18.021 32.7502C20.6844 32.2495 21.0956 31.8963 21.9939 30.8552C22.1999 30.6165 22.4333 30.3459 22.7566 30.0163L22.757 30.0159C23.2385 29.5237 23.4587 29.6072 23.8582 29.7584C24.1819 29.8807 24.4971 30.2511 24.625 30.6587C24.6854 30.8512 24.7534 31.2167 24.5311 31.5009C22.6547 33.8993 19.9205 33.8684 17.9569 33.4198ZM31.8955 45.2608C28.6372 45.8982 27.4836 44.3805 26.7234 42.6455C26.2327 41.5253 25.9916 36.4744 26.1627 30.8966C26.1649 30.8223 26.1534 30.7506 26.1309 30.6833C26.1114 30.5532 26.0815 30.4216 26.0399 30.2891C25.7853 29.4775 25.1654 28.7986 24.4216 28.5172C24.126 28.4054 23.5835 28.2003 22.9317 28.3525C23.0708 27.8296 23.3119 27.2393 23.5731 26.6L23.6828 26.3309C23.8063 26.0277 23.9611 25.7137 24.125 25.3813C25.0102 23.5858 26.2227 21.1268 24.9068 15.5714C24.4139 13.4907 22.768 12.4746 20.273 12.7106C18.7771 12.8519 17.4087 13.4028 16.7261 13.7188C16.5794 13.7867 16.4451 13.8522 16.3198 13.9161C16.5102 11.8195 17.23 7.90156 19.9224 5.42269C21.6175 3.86201 23.8752 3.09126 26.6259 3.13276C32.0457 3.21381 35.5212 5.75293 37.4826 7.86879C39.1727 9.69214 40.088 11.5287 40.4533 12.5192C37.7065 12.2643 35.8383 12.7594 34.8912 13.9953C32.8309 16.6838 36.0183 21.9022 37.5503 24.41C37.8311 24.8697 38.0736 25.2669 38.1499 25.4357C38.6487 26.5394 39.2946 27.2762 39.7661 27.8141C39.9106 27.9789 40.0509 28.1388 40.1575 28.2783C39.3256 28.4973 37.8313 29.0032 37.9674 31.5318C37.8576 32.8007 37.0765 38.7412 36.6798 40.8401C36.156 43.6129 35.0383 44.6457 31.8955 45.2608ZM45.4957 31.0527C44.6451 31.4133 43.2214 31.6837 41.869 31.7417C40.3752 31.8056 39.6149 31.589 39.436 31.4557C39.3519 29.88 39.9946 29.7153 40.6745 29.541C40.7814 29.5135 40.8856 29.4869 40.9862 29.4548C41.0488 29.5012 41.1173 29.5474 41.1922 29.5925C42.3928 30.3159 44.5343 30.394 47.5574 29.8244C47.5685 29.8222 47.5796 29.8203 47.5906 29.8182C47.1829 30.1662 46.4851 30.6334 45.4957 31.0527Z" fill="white"/>
</svg>
