<svg width="64" height="59" viewBox="0 0 64 59" fill="none" xmlns="http://www.w3.org/2000/svg">
<g clip-path="url(#clip0_319_29)">
<path d="M19.5906 42.0801H17.8579C17.7967 39.3839 17.6279 36.8493 17.352 34.4741H17.3366L14.6986 42.0801H13.3795L10.7572 34.4741H10.7421C10.5476 36.7545 10.4251 39.2898 10.3742 42.0801H8.79486C8.89664 38.687 9.15244 35.506 9.56125 32.5367H11.7087L14.2081 39.5491H14.2235L16.7383 32.5367H18.7931C19.2431 36.0147 19.5089 39.196 19.5906 42.0801ZM27.1048 35.039C26.3994 38.5682 25.4686 41.1325 24.3135 42.7332C23.4135 43.9653 22.4275 44.582 21.3537 44.582C21.0675 44.582 20.7142 44.5024 20.2957 44.3444V43.4934C20.5003 43.5206 20.7403 43.536 21.0162 43.536C21.5178 43.536 21.9209 43.4088 22.2283 43.1539C22.5959 42.8434 22.7797 42.4943 22.7797 42.1082C22.7797 41.8433 22.6364 41.3019 22.3505 40.4821L20.4491 35.0387H22.1513L23.516 39.1099C23.8226 40.0343 23.9505 40.6797 23.8993 41.0473C24.6456 39.2099 25.1669 37.2064 25.4639 35.0384H27.1048V35.039Z" fill="#5D87A1"/>
<path d="M50.1685 42.0801H45.2468V32.5367H46.9024V40.9053H50.1685V42.0801ZM43.9584 42.3106L42.0553 41.4449C42.2241 41.3171 42.3855 41.1788 42.5308 41.0186C43.3397 40.1426 43.7431 38.8472 43.7431 37.1314C43.7431 33.9741 42.3992 32.3947 39.7103 32.3947C38.3918 32.3947 37.3632 32.7954 36.6277 33.597C35.8194 34.4735 35.416 35.7643 35.416 37.4709C35.416 39.1485 35.7735 40.3791 36.489 41.1597C37.1436 41.8668 38.1303 42.2208 39.4498 42.2208C39.942 42.2208 40.3936 42.1653 40.8051 42.0532L43.2828 43.3829L43.9584 42.3106ZM37.7935 40.1704C37.3743 39.5488 37.1647 38.5506 37.1647 37.1743C37.1647 34.7714 37.9565 33.5686 39.5419 33.5686C40.3705 33.5686 40.9779 33.8562 41.3663 34.4303C41.7848 35.0529 41.9954 36.0421 41.9954 37.3993C41.9954 39.8219 41.2029 41.0334 39.6185 41.0334C38.7896 41.0337 38.1822 40.747 37.7935 40.1704ZM34.6944 39.4349C34.6944 40.2442 34.3724 40.9081 33.7288 41.4282C33.0847 41.9461 32.2208 42.2057 31.1384 42.2057C30.1259 42.2057 29.1442 41.9075 28.194 41.3143L28.639 40.4948C29.4566 40.8723 30.1969 41.06 30.8615 41.06C31.4853 41.06 31.9727 40.9325 32.3263 40.6797C32.6795 40.426 32.8901 40.0701 32.8901 39.6201C32.8901 39.0531 32.4612 38.5685 31.6744 38.1626C30.9489 37.7953 29.4978 37.0274 29.4978 37.0274C28.7113 36.4989 28.3176 35.9316 28.3176 34.997C28.3176 34.2235 28.6112 33.5991 29.1988 33.1241C29.7871 32.6472 30.5461 32.4096 31.4765 32.4096C32.4375 32.4096 33.311 32.6469 34.0978 33.1167L33.6987 33.9365C33.0257 33.6729 32.3615 33.5411 31.7062 33.5411C31.1755 33.5411 30.7657 33.6587 30.4808 33.8948C30.1935 34.13 30.0164 34.431 30.0164 34.8001C30.0164 35.3643 30.4544 35.8551 31.2626 36.269C31.9979 36.6369 33.4851 37.4181 33.4851 37.4181C34.2917 37.9456 34.6944 38.5077 34.6944 39.4349Z" fill="#F8981D"/>
<path d="M52.247 29.3403C51.2459 29.3168 50.4708 29.4097 49.8203 29.6634C49.6325 29.7326 49.3338 29.7326 49.3077 29.9514C49.4091 30.044 49.4209 30.1934 49.5089 30.3212C49.6589 30.5517 49.9204 30.8619 50.1591 31.0237C50.4213 31.2089 50.6844 31.3922 50.9603 31.5536C51.4468 31.8311 51.9983 31.9925 52.4724 32.2691C52.7486 32.4299 53.0231 32.6379 53.2997 32.8111C53.4356 32.9034 53.5227 33.0531 53.6991 33.1108V33.0756C53.6107 32.9719 53.5856 32.8219 53.4989 32.7065L53.1232 32.3725C52.7603 31.9231 52.3093 31.5308 51.8228 31.2086C51.4224 30.9542 50.5465 30.6085 50.3841 30.1832L50.3587 30.1597C50.6339 30.136 50.9603 30.044 51.2218 29.9733C51.6474 29.8699 52.0354 29.8934 52.472 29.79C52.6729 29.7437 52.8721 29.6856 53.0737 29.6285V29.5245C52.8473 29.3168 52.686 29.0409 52.4479 28.8446C51.8111 28.3374 51.1093 27.8414 50.3841 27.4263C49.9957 27.1951 49.4962 27.0463 49.0827 26.8497C48.9337 26.7803 48.6826 26.746 48.5949 26.6306C48.3705 26.3768 48.2443 26.0429 48.0816 25.7426C47.72 25.1089 47.3688 24.4058 47.0567 23.7357C46.8311 23.2863 46.6938 22.8375 46.4186 22.4217C45.1296 20.4618 43.7297 19.2747 41.5782 18.1095C41.1158 17.8669 40.5657 17.7635 39.9781 17.6363L39.0396 17.5906C38.8394 17.5098 38.6389 17.2903 38.4641 17.1866C37.7503 16.7718 35.9125 15.8727 35.3875 17.0597C35.0493 17.8101 35.8877 18.5478 36.1756 18.9284C36.3882 19.1926 36.6638 19.4932 36.8124 19.7932C36.9005 19.9892 36.9253 20.1972 37.0133 20.4043C37.2135 20.9118 37.4007 21.4763 37.6639 21.9498C37.8011 22.1912 37.9508 22.4449 38.1263 22.6634C38.2267 22.7912 38.4015 22.8477 38.4396 23.056C38.2652 23.2857 38.2515 23.6323 38.1514 23.9206C37.7014 25.2234 37.8771 26.8374 38.515 27.7948C38.7145 28.0831 39.1906 28.7177 39.8274 28.4745C40.3913 28.2671 40.2664 27.6099 40.4284 27.0337C40.4656 26.8945 40.4412 26.8031 40.5162 26.7117V26.7343C40.6906 27.0568 40.8667 27.3676 41.0284 27.6911C41.4165 28.2556 42.0921 28.8439 42.6549 29.235C42.9546 29.4437 43.192 29.8005 43.5673 29.9279V29.8934H43.5425C43.4665 29.79 43.3554 29.7437 43.2556 29.6634C43.0299 29.4557 42.7802 29.202 42.6051 28.9717C42.0807 28.3257 41.6167 27.6105 41.2049 26.8726C41.0033 26.5145 40.8295 26.1231 40.6672 25.7657C40.5915 25.6277 40.5915 25.4197 40.4659 25.3503C40.2778 25.6037 40.0036 25.8231 39.8663 26.1336C39.6282 26.6303 39.6034 27.2411 39.5151 27.8763L39.4658 27.8985C39.0674 27.8062 38.9288 27.4263 38.7775 27.1037C38.4028 26.2846 38.3399 24.9697 38.665 24.0246C38.752 23.7829 39.1287 23.0218 38.9784 22.7915C38.903 22.5708 38.6526 22.4452 38.5153 22.2714C38.3539 22.0529 38.1771 21.7763 38.0646 21.5337C37.7647 20.8883 37.6136 20.1732 37.2906 19.5281C37.1396 19.2274 36.8774 18.9163 36.6651 18.6394C36.4267 18.3283 36.1646 18.1092 35.9761 17.7403C35.9138 17.6135 35.8264 17.4061 35.9265 17.2681C35.951 17.1755 36.0019 17.1409 36.1016 17.1178C36.2637 16.9915 36.7267 17.152 36.8891 17.2215C37.3528 17.3943 37.7405 17.5558 38.1276 17.7977C38.3027 17.9135 38.4905 18.1326 38.7152 18.1904H38.9784C39.3778 18.2706 39.8281 18.2126 40.2041 18.3169C40.8667 18.5132 41.467 18.8012 42.0054 19.112C43.6436 20.0698 44.9946 21.4306 45.9067 23.056C46.0563 23.3208 46.1199 23.5634 46.2565 23.8397C46.52 24.4052 46.8458 24.9817 47.1073 25.5351C47.3701 26.0768 47.6206 26.6299 47.9959 27.08C48.1831 27.322 48.935 27.4488 49.2722 27.5757C49.5216 27.6791 49.91 27.7711 50.135 27.8979C50.5606 28.1396 50.9844 28.4171 51.3845 28.6828C51.5838 28.8211 52.2099 29.1094 52.247 29.3403ZM39.4886 19.32C39.3159 19.3184 39.1438 19.3379 38.9767 19.3781V19.4012H39.0008C39.1016 19.5855 39.2767 19.7133 39.4016 19.8741C39.5023 20.059 39.5897 20.2423 39.6885 20.4269L39.7126 20.404C39.889 20.2889 39.9768 20.1043 39.9768 19.8275C39.9008 19.746 39.889 19.6663 39.8258 19.5855C39.7521 19.47 39.5897 19.4126 39.4886 19.32Z" fill="#5D87A1"/>
<path d="M53.4383 42.0785H53.6974V40.9093H53.3087L52.9917 41.7072L52.6471 40.9093H52.2728V42.0785H52.5176V41.189H52.5313L52.8922 42.0785H53.0787L53.4383 41.189V42.0785ZM51.3507 42.0785H51.6249V41.1075H51.9839V40.909H50.9767V41.1075H51.3501L51.3507 42.0785Z" fill="#F8981D"/>
</g>
<defs>
<clipPath id="clip0_319_29">
<rect width="64" height="59" fill="white"/>
</clipPath>
</defs>
</svg>
