<svg width="48" height="51" viewBox="0 0 48 51" fill="none" xmlns="http://www.w3.org/2000/svg">
<g clip-path="url(#clip0_319_34)">
<path d="M13.2251 13.8847L10.1227 10.5885L10.1358 34.415L10.1729 35.5287C10.1883 36.0526 10.2798 36.6439 10.4324 37.2567L35.0144 46.4666L41.1592 43.5739L41.1614 43.5659L13.2251 13.8847Z" fill="#00D2B8"/>
<path d="M10.4325 37.2567L10.434 37.2583C10.4325 37.2475 10.4272 37.2356 10.4272 37.2244C10.4272 37.2356 10.4287 37.2459 10.4325 37.2567ZM41.1592 43.5739L35.0145 46.4666L10.434 37.2583C10.9035 39.1724 11.943 41.3239 13.0616 42.5005L21.0836 50.9753L38.9205 51L41.1615 43.566L41.1592 43.5739Z" fill="#55DDCA"/>
<path d="M0.568844 25.9215C-0.225406 26.8224 0.169094 28.6807 1.44784 30.0498L6.96372 35.959L10.4325 37.2567C10.2798 36.6439 10.1883 36.0526 10.173 35.5287L10.1358 34.415L10.1227 10.5885L0.568844 25.9215Z" fill="#0081C6"/>
<path d="M35.2162 10.8945C34.6394 10.7379 34.0863 10.6411 33.5849 10.6244L32.4772 10.5837L10.1227 10.5869L41.1644 43.566H41.1671L43.8933 37.0308L35.2162 10.8945Z" fill="#0079B3"/>
<path d="M35.1881 10.8881C35.2001 10.8909 35.2095 10.8945 35.2174 10.8957L35.2162 10.8945C35.2095 10.8909 35.2001 10.8909 35.1881 10.8881ZM40.1471 13.6927C39.0206 12.4858 37.0222 11.3889 35.2174 10.8957L43.8934 37.0308L41.1671 43.5659H41.1645L47.8267 41.3052L47.841 21.8981L40.1471 13.6927Z" fill="#00A4E4"/>
<path d="M34.0008 7.23127L28.4407 1.36707C27.1548 0.0135779 25.4051 -0.40757 24.5594 0.433929L10.1227 10.5869L32.4772 10.5837L33.5849 10.6244C34.0863 10.6411 34.6394 10.7379 35.2162 10.8945L34.0008 7.23127Z" fill="#00D2B8"/>
</g>
<defs>
<clipPath id="clip0_319_34">
<rect width="48" height="51" fill="white"/>
</clipPath>
</defs>
</svg>
