<svg width="56" height="52" viewBox="0 0 56 52" fill="none" xmlns="http://www.w3.org/2000/svg">
<path d="M28.087 13.716C39.6162 5.40486 33.6991 0 33.6991 0C34.5797 8.59199 24.1728 10.6207 21.3831 16.5249C19.4796 20.5538 22.6867 24.0814 28.0831 28.5275C27.6061 27.5428 26.8702 26.586 26.1254 25.6173C23.5846 22.3134 20.9379 18.8714 28.087 13.716Z" fill="#E76F00"/>
<path d="M29.9277 30.3501C29.9277 30.3501 33.3962 27.7516 30.6494 24.8638C21.338 15.0668 40.8333 10.6207 40.8333 10.6207C28.9305 15.9453 30.7075 19.1058 33.6993 22.9453C36.9025 27.0624 29.9277 30.3501 29.9277 30.3501Z" fill="#E76F00"/>
<path d="M40.1398 38.0991C50.824 33.0294 45.8841 28.1577 42.4361 28.814C41.5909 28.9746 41.2141 29.1138 41.2141 29.1138C41.2141 29.1138 41.5279 28.665 42.1271 28.4706C48.9484 26.281 54.1944 34.9292 39.925 38.3545C39.925 38.3545 40.0904 38.2197 40.1398 38.0991Z" fill="#5382A1"/>
<path d="M17.9078 31.6825C11.223 30.8674 21.5731 28.6226 21.5731 28.6226C21.5731 28.6226 17.5537 28.3751 12.6104 30.557C6.76511 33.139 27.0692 34.3132 37.5795 31.7891C38.6722 31.1077 40.1825 30.5172 40.1825 30.5172C40.1825 30.5172 35.8815 31.2185 31.5982 31.5486C26.3571 31.9495 20.7303 32.0276 17.9078 31.6825Z" fill="#5382A1"/>
<path d="M20.4512 36.5232C16.7234 36.1712 19.1642 34.5213 19.1642 34.5213C9.51818 37.4447 24.5311 40.7599 38.0098 37.1608C36.5771 36.6996 35.666 35.8561 35.666 35.8561C29.0785 37.0144 25.2717 36.9774 20.4512 36.5232Z" fill="#5382A1"/>
<path d="M22.0754 41.7611C18.3505 41.3701 20.5267 40.2145 20.5267 40.2145C11.7704 42.4486 25.8526 47.0641 37.0008 42.7013C35.1749 42.0529 33.8674 41.3044 33.8674 41.3044C28.8945 42.1637 26.588 42.2312 22.0754 41.7611Z" fill="#5382A1"/>
<path d="M45.3927 44.4255C45.3927 44.4255 47.0031 45.6371 43.6191 46.5744C37.1842 48.3545 16.8366 48.892 11.1841 46.6455C9.15222 45.8383 12.9627 44.7182 14.1613 44.4831C15.4113 44.2356 16.1257 44.2817 16.1257 44.2817C13.8659 42.8282 1.51986 47.1359 9.85444 48.3696C32.5841 51.7354 51.2885 46.8538 45.3927 44.4255Z" fill="#5382A1"/>
<path d="M49 47.0728C48.6271 51.5039 32.8785 52.436 22.623 51.8365C15.9326 51.4447 14.5918 50.4657 14.5721 50.4514C20.9754 51.4153 31.7711 51.5908 40.5244 50.0866C48.2831 48.7526 49 47.0728 49 47.0728Z" fill="#5382A1"/>
</svg>
